<svg xmlns="http://www.w3.org/2000/svg" width="1280" height="220" viewBox="0 0 1280 220" role="img" aria-labelledby="title desc">
  <title id="title">Maestro</title>
  <desc id="desc">Three session cards on a dark desktop.</desc>
  <defs>
    <linearGradient id="bg" x1="0" y1="0" x2="1" y2="1">
      <stop offset="0" stop-color="#070b14"/>
      <stop offset="1" stop-color="#101828"/>
    </linearGradient>
  </defs>
  <rect width="1280" height="220" fill="url(#bg)"/>
  <rect width="8" height="220" fill="#3b82f6"/>
  <g fill="#111827" stroke="#1e3a5f" stroke-width="1.5">
    <rect x="96" y="36" width="330" height="148" rx="14"/>
    <rect x="474" y="36" width="330" height="148" rx="14"/>
    <rect x="852" y="36" width="330" height="148" rx="14"/>
  </g>
  <g fill="#1e3a5f">
    <rect x="120" y="60" width="150" height="12" rx="6"/>
    <rect x="498" y="60" width="120" height="12" rx="6"/>
    <rect x="876" y="60" width="170" height="12" rx="6"/>
  </g>
  <g>
    <rect x="120" y="92" width="52" height="22" rx="11" fill="#172554"/>
    <rect x="180" y="92" width="64" height="22" rx="11" fill="#14532d"/>
    <rect x="498" y="92" width="52" height="22" rx="11" fill="#172554"/>
    <rect x="558" y="92" width="64" height="22" rx="11" fill="#14532d"/>
    <rect x="876" y="92" width="52" height="22" rx="11" fill="#172554"/>
  </g>
  <g>
    <rect x="120" y="136" width="88" height="28" rx="8" fill="#14532d"/>
    <rect x="498" y="136" width="88" height="28" rx="8" fill="#14532d"/>
    <rect x="876" y="136" width="88" height="28" rx="8" fill="#14532d"/>
  </g>
</svg>
